<svg width="94" height="13" viewBox="0 0 94 13" fill="none" xmlns="http://www.w3.org/2000/svg">
<path d="M3.39773 12H0.375L4.30114 0.363636H8.04545L11.9716 12H8.94886L6.21591 3.29545H6.125L3.39773 12ZM2.99432 7.42045H9.3125V9.55682H2.99432V7.42045ZM19.1548 3.85227C19.117 3.43561 18.9484 3.11174 18.6491 2.88068C18.3537 2.64583 17.9313 2.52841 17.3821 2.52841C17.0185 2.52841 16.7154 2.57576 16.473 2.67045C16.2306 2.76515 16.0488 2.89583 15.9276 3.0625C15.8063 3.22538 15.7438 3.41288 15.7401 3.625C15.7325 3.79924 15.7666 3.95265 15.8423 4.08523C15.9219 4.2178 16.0355 4.33523 16.1832 4.4375C16.3348 4.53598 16.5166 4.62311 16.7287 4.69886C16.9408 4.77462 17.1795 4.84091 17.4446 4.89773L18.4446 5.125C19.0204 5.25 19.5279 5.41667 19.9673 5.625C20.4105 5.83333 20.7817 6.08144 21.081 6.36932C21.384 6.6572 21.6132 6.98864 21.7685 7.36364C21.9238 7.73864 22.0033 8.15909 22.0071 8.625C22.0033 9.35985 21.8177 9.99053 21.4503 10.517C21.0829 11.0436 20.5545 11.447 19.8651 11.7273C19.1795 12.0076 18.3518 12.1477 17.3821 12.1477C16.4086 12.1477 15.5601 12.0019 14.8366 11.7102C14.1132 11.4186 13.5507 10.9754 13.1491 10.3807C12.7476 9.78598 12.5412 9.03409 12.5298 8.125H15.223C15.2457 8.5 15.3461 8.8125 15.5241 9.0625C15.7022 9.3125 15.9465 9.50189 16.2571 9.63068C16.5715 9.75947 16.9351 9.82386 17.348 9.82386C17.7268 9.82386 18.0488 9.77273 18.3139 9.67045C18.5829 9.56818 18.7893 9.42614 18.9332 9.24432C19.0772 9.0625 19.151 8.85417 19.1548 8.61932C19.151 8.39962 19.0829 8.21212 18.9503 8.05682C18.8177 7.89773 18.6132 7.76136 18.3366 7.64773C18.0639 7.5303 17.7154 7.42235 17.2912 7.32386L16.0753 7.03977C15.0677 6.80871 14.2741 6.43561 13.6946 5.92045C13.1151 5.40151 12.8272 4.70076 12.831 3.81818C12.8272 3.09848 13.0204 2.4678 13.4105 1.92614C13.8007 1.38447 14.3404 0.962121 15.0298 0.659091C15.7192 0.35606 16.5052 0.204545 17.3878 0.204545C18.2893 0.204545 19.0715 0.357954 19.7344 0.664772C20.401 0.967803 20.9181 1.39394 21.2855 1.94318C21.6529 2.49242 21.8404 3.12879 21.848 3.85227H19.1548ZM23.4276 12V0.363636H26.2401V5.28409H26.3935L30.2401 0.363636H33.5526L29.4276 5.55682L33.6264 12H30.2628L27.3651 7.42614L26.2401 8.84659V12H23.4276ZM39.8878 5.11364V7.25H34.5014V5.11364H39.8878ZM44.6619 0.363636V12H41.8494V0.363636H44.6619ZM46.0469 2.64773V0.363636H55.8821V2.64773H52.3537V12H49.581V2.64773H46.0469ZM62.6065 5.11364V7.25H57.2202V5.11364H62.6065ZM67.0852 12H64.0625L67.9886 0.363636H71.733L75.6591 12H72.6364L69.9034 3.29545H69.8125L67.0852 12ZM66.6818 7.42045H73V9.55682H66.6818V7.42045ZM76.9119 12V0.363636H79.7244V9.71591H84.5653V12H76.9119ZM86.0213 12V0.363636H88.8338V9.71591H93.6747V12H86.0213Z" fill="url(#paint0_linear_531_1845)"/>
<defs>
<linearGradient id="paint0_linear_531_1845" x1="-4.73514" y1="6.69388" x2="154.681" y2="6.69388" gradientUnits="userSpaceOnUse">
<stop stop-color="#EB5757"/>
<stop offset="0.297312" stop-color="#EB5757"/>
<stop offset="0.707421" stop-color="#4A3AFF"/>
<stop offset="0.961935" stop-color="#4A3AFF"/>
</linearGradient>
</defs>
</svg>
