<svg width="98" height="40" viewBox="0 0 98 40" fill="none" xmlns="http://www.w3.org/2000/svg">
<rect x="0.5" y="0.5" width="97" height="39" rx="7.5" stroke="#111111"/>
<path d="M28.4927 24.316H32.3967V25.5H27.0367V14.348H28.4927V24.316ZM37.7669 25.644C36.9456 25.644 36.1989 25.4573 35.5269 25.084C34.8656 24.7107 34.3429 24.1827 33.9589 23.5C33.5856 22.8067 33.3989 22.0067 33.3989 21.1C33.3989 20.204 33.5909 19.4147 33.9749 18.732C34.3696 18.0387 34.9029 17.5107 35.5749 17.148C36.2469 16.7747 36.9989 16.588 37.8309 16.588C38.6629 16.588 39.4149 16.7747 40.0869 17.148C40.7589 17.5107 41.2869 18.0333 41.6709 18.716C42.0656 19.3987 42.2629 20.1933 42.2629 21.1C42.2629 22.0067 42.0603 22.8067 41.6549 23.5C41.2603 24.1827 40.7216 24.7107 40.0389 25.084C39.3563 25.4573 38.5989 25.644 37.7669 25.644ZM37.7669 24.364C38.2896 24.364 38.7803 24.2413 39.2389 23.996C39.6976 23.7507 40.0656 23.3827 40.3429 22.892C40.6309 22.4013 40.7749 21.804 40.7749 21.1C40.7749 20.396 40.6363 19.7987 40.3589 19.308C40.0816 18.8173 39.7189 18.4547 39.2709 18.22C38.8229 17.9747 38.3376 17.852 37.8149 17.852C37.2816 17.852 36.7909 17.9747 36.3429 18.22C35.9056 18.4547 35.5536 18.8173 35.2869 19.308C35.0203 19.7987 34.8869 20.396 34.8869 21.1C34.8869 21.8147 35.0149 22.4173 35.2709 22.908C35.5376 23.3987 35.8896 23.7667 36.3269 24.012C36.7643 24.2467 37.2443 24.364 37.7669 24.364ZM47.7933 16.588C48.5506 16.588 49.212 16.7533 49.7773 17.084C50.3533 17.4147 50.78 17.8307 51.0573 18.332V16.732H52.5293V25.692C52.5293 26.492 52.3586 27.2013 52.0173 27.82C51.676 28.4493 51.1853 28.94 50.5453 29.292C49.916 29.644 49.18 29.82 48.3373 29.82C47.1853 29.82 46.2253 29.548 45.4573 29.004C44.6893 28.46 44.236 27.7187 44.0973 26.78H45.5373C45.6973 27.3133 46.028 27.74 46.5293 28.06C47.0306 28.3907 47.6333 28.556 48.3373 28.556C49.1373 28.556 49.788 28.3053 50.2893 27.804C50.8013 27.3027 51.0573 26.5987 51.0573 25.692V23.852C50.7693 24.364 50.3426 24.7907 49.7773 25.132C49.212 25.4733 48.5506 25.644 47.7933 25.644C47.0146 25.644 46.3053 25.452 45.6653 25.068C45.036 24.684 44.54 24.1453 44.1773 23.452C43.8146 22.7587 43.6333 21.9693 43.6333 21.084C43.6333 20.188 43.8146 19.404 44.1773 18.732C44.54 18.0493 45.036 17.5213 45.6653 17.148C46.3053 16.7747 47.0146 16.588 47.7933 16.588ZM51.0573 21.1C51.0573 20.4387 50.924 19.8627 50.6573 19.372C50.3906 18.8813 50.028 18.508 49.5693 18.252C49.1213 17.9853 48.6253 17.852 48.0813 17.852C47.5373 17.852 47.0413 17.98 46.5933 18.236C46.1453 18.492 45.788 18.8653 45.5213 19.356C45.2546 19.8467 45.1213 20.4227 45.1213 21.084C45.1213 21.756 45.2546 22.3427 45.5213 22.844C45.788 23.3347 46.1453 23.7133 46.5933 23.98C47.0413 24.236 47.5373 24.364 48.0813 24.364C48.6253 24.364 49.1213 24.236 49.5693 23.98C50.028 23.7133 50.3906 23.3347 50.6573 22.844C50.924 22.3427 51.0573 21.7613 51.0573 21.1ZM60.0074 15.308C59.7301 15.308 59.4954 15.212 59.3034 15.02C59.1114 14.828 59.0154 14.5933 59.0154 14.316C59.0154 14.0387 59.1114 13.804 59.3034 13.612C59.4954 13.42 59.7301 13.324 60.0074 13.324C60.2741 13.324 60.4981 13.42 60.6794 13.612C60.8714 13.804 60.9674 14.0387 60.9674 14.316C60.9674 14.5933 60.8714 14.828 60.6794 15.02C60.4981 15.212 60.2741 15.308 60.0074 15.308ZM60.7114 16.732V25.5H59.2554V16.732H60.7114ZM67.4649 16.572C68.5316 16.572 69.3956 16.8973 70.0569 17.548C70.7183 18.188 71.0489 19.116 71.0489 20.332V25.5H69.6089V20.54C69.6089 19.6653 69.3903 18.9987 68.9529 18.54C68.5156 18.0707 67.9183 17.836 67.1609 17.836C66.3929 17.836 65.7796 18.076 65.3209 18.556C64.8729 19.036 64.6489 19.7347 64.6489 20.652V25.5H63.1929V16.732H64.6489V17.98C64.9369 17.532 65.3263 17.1853 65.8169 16.94C66.3183 16.6947 66.8676 16.572 67.4649 16.572Z" fill="#111111"/>
</svg>
