<svg width="838" height="181" viewBox="0 0 838 181" fill="none" xmlns="http://www.w3.org/2000/svg">
<g clip-path="url(#clip0_134_2017)">
<rect width="838" height="181" rx="20" fill="#EB5757"/>
<path d="M721 45C721 45 723.207 65.5997 731.804 74.1964C740.4 82.793 761 85 761 85C761 85 740.4 87.207 731.804 95.8036C723.207 104.4 721 125 721 125C721 125 718.793 104.4 710.196 95.8036C701.6 87.207 681 85 681 85C681 85 701.6 82.793 710.196 74.1964C718.793 65.5997 721 45 721 45Z" fill="white" fill-opacity="0.25"/>
<path d="M791 93C791 93 793.207 113.6 801.804 122.196C810.4 130.793 831 133 831 133C831 133 810.4 135.207 801.804 143.804C793.207 152.4 791 173 791 173C791 173 788.793 152.4 780.196 143.804C771.6 135.207 751 133 751 133C751 133 771.6 130.793 780.196 122.196C788.793 113.6 791 93 791 93Z" fill="white" fill-opacity="0.1"/>
<path d="M650 122C650 122 652.207 152.385 660.804 165.065C669.4 177.745 690 181 690 181C690 181 669.4 184.255 660.804 196.935C652.207 209.615 650 240 650 240C650 240 647.793 209.615 639.196 196.935C630.6 184.255 610 181 610 181C610 181 630.6 177.745 639.196 165.065C647.793 152.385 650 122 650 122Z" fill="white" fill-opacity="0.1"/>
<path d="M781.5 -59C781.5 -59 783.183 -28.6154 789.738 -15.9354C796.293 -3.25534 812 -3.8147e-06 812 -3.8147e-06C812 -3.8147e-06 796.293 3.25534 789.738 15.9354C783.183 28.6154 781.5 59 781.5 59C781.5 59 779.817 28.6154 773.262 15.9354C766.707 3.25534 751 -3.8147e-06 751 -3.8147e-06C751 -3.8147e-06 766.707 -3.25534 773.262 -15.9354C779.817 -28.6154 781.5 -59 781.5 -59Z" fill="white" fill-opacity="0.1"/>
<path d="M650.5 20C650.5 20 652.183 35.4498 658.738 41.8973C665.293 48.3447 681 50 681 50C681 50 665.293 51.6553 658.738 58.1027C652.183 64.5502 650.5 80 650.5 80C650.5 80 648.817 64.5502 642.262 58.1027C635.707 51.6553 620 50 620 50C620 50 635.707 48.3447 642.262 41.8973C648.817 35.4498 650.5 20 650.5 20Z" fill="white" fill-opacity="0.1"/>
</g>
<defs>
<clipPath id="clip0_134_2017">
<rect width="838" height="181" rx="20" fill="white"/>
</clipPath>
</defs>
</svg>
