<svg width="165" height="37" viewBox="0 0 165 37" fill="none" xmlns="http://www.w3.org/2000/svg">
<path d="M55.7988 14.7353V23.2161H52.9422V12.5213H55.6209L55.7988 14.7353ZM55.4034 17.4931H54.6127C54.6127 16.7484 54.7016 16.0631 54.8796 15.4371C55.0641 14.8045 55.3309 14.2576 55.6802 13.7963C56.036 13.3285 56.4742 12.9661 56.9948 12.7091C57.5154 12.4521 58.1183 12.3236 58.8036 12.3236C59.2781 12.3236 59.713 12.3961 60.1084 12.541C60.5037 12.6794 60.8431 12.9002 61.1264 13.2033C61.4164 13.4998 61.6404 13.8886 61.7986 14.3696C61.9567 14.8441 62.0358 15.4141 62.0358 16.0796V23.2161H59.1891V16.3959C59.1891 15.9083 59.1232 15.5327 58.9914 15.2691C58.8596 15.0055 58.6718 14.821 58.428 14.7156C58.1908 14.6101 57.9042 14.5574 57.5681 14.5574C57.1991 14.5574 56.8762 14.6332 56.5994 14.7848C56.3293 14.9363 56.1052 15.1472 55.9273 15.4174C55.7494 15.6809 55.6176 15.9907 55.5319 16.3465C55.4463 16.7023 55.4034 17.0845 55.4034 17.4931ZM61.7689 17.1669L60.7508 17.2954C60.7508 16.5969 60.8365 15.9478 61.0078 15.3482C61.1857 14.7485 61.446 14.2214 61.7887 13.7667C62.1379 13.312 62.5695 12.9595 63.0835 12.7091C63.5975 12.4521 64.1906 12.3236 64.8627 12.3236C65.3767 12.3236 65.8445 12.3994 66.2663 12.5509C66.688 12.6959 67.0471 12.9298 67.3437 13.2527C67.6468 13.569 67.8774 13.9841 68.0356 14.4981C68.2003 15.0121 68.2827 15.6414 68.2827 16.386V23.2161H65.4261V16.386C65.4261 15.8918 65.3602 15.5162 65.2284 15.2592C65.1032 14.9956 64.9187 14.8144 64.6749 14.7156C64.4377 14.6101 64.1543 14.5574 63.8248 14.5574C63.4822 14.5574 63.1824 14.6266 62.9254 14.765C62.6684 14.8968 62.4542 15.0813 62.2829 15.3185C62.1116 15.5557 61.9831 15.8325 61.8974 16.1488C61.8117 16.4585 61.7689 16.7979 61.7689 17.1669ZM76.2593 20.8043V16.0401C76.2593 15.6974 76.2033 15.4042 76.0912 15.1604C75.9792 14.91 75.8046 14.7156 75.5674 14.5772C75.3367 14.4388 75.0369 14.3696 74.6679 14.3696C74.3516 14.3696 74.0781 14.4256 73.8475 14.5377C73.6169 14.6431 73.439 14.7979 73.3138 15.0022C73.1886 15.1999 73.126 15.4338 73.126 15.704H70.2793C70.2793 15.2493 70.3847 14.8177 70.5956 14.4092C70.8064 14.0006 71.1129 13.6415 71.5148 13.3318C71.9168 13.0155 72.3945 12.7684 72.948 12.5905C73.5082 12.4125 74.1342 12.3236 74.8261 12.3236C75.6563 12.3236 76.3944 12.462 77.0401 12.7387C77.6859 13.0155 78.1933 13.4306 78.5623 13.9841C78.9379 14.5377 79.1257 15.2296 79.1257 16.0598V20.6363C79.1257 21.2227 79.162 21.7038 79.2344 22.0794C79.3069 22.4484 79.4124 22.7713 79.5507 23.048V23.2161H76.6744C76.536 22.9261 76.4306 22.5637 76.3581 22.1288C76.2922 21.6873 76.2593 21.2458 76.2593 20.8043ZM76.6349 16.7023L76.6546 18.3135H75.0633C74.6877 18.3135 74.3615 18.3563 74.0847 18.442C73.808 18.5276 73.5806 18.6495 73.4027 18.8077C73.2248 18.9592 73.093 19.1371 73.0073 19.3414C72.9283 19.5457 72.8887 19.7697 72.8887 20.0136C72.8887 20.2574 72.9447 20.4781 73.0568 20.6758C73.1688 20.8669 73.3302 21.0185 73.5411 21.1305C73.752 21.2359 73.9991 21.2886 74.2824 21.2886C74.7107 21.2886 75.083 21.203 75.3993 21.0316C75.7156 20.8603 75.9595 20.6494 76.1308 20.399C76.3087 20.1486 76.401 19.9114 76.4075 19.6874L77.1587 20.8933C77.0533 21.1634 76.9083 21.4435 76.7238 21.7334C76.5459 22.0234 76.3186 22.2968 76.0418 22.5538C75.7651 22.8042 75.4323 23.0118 75.0435 23.1765C74.6547 23.3347 74.1935 23.4138 73.6597 23.4138C72.981 23.4138 72.3649 23.2787 71.8113 23.0085C71.2644 22.7317 70.8295 22.3528 70.5066 21.8718C70.1903 21.3842 70.0322 20.8307 70.0322 20.2112C70.0322 19.6511 70.1376 19.1536 70.3485 18.7187C70.5593 18.2838 70.869 17.9181 71.2776 17.6216C71.6927 17.3184 72.21 17.0911 72.8294 16.9395C73.4488 16.7814 74.1671 16.7023 74.9842 16.7023H76.6349ZM84.1074 14.8045V23.2161H81.2607V12.5213H83.9295L84.1074 14.8045ZM83.6923 17.4931H82.9213C82.9213 16.7023 83.0234 15.9907 83.2277 15.3581C83.432 14.7189 83.7186 14.1752 84.0876 13.7271C84.4566 13.2725 84.8949 12.9265 85.4022 12.6893C85.9162 12.4455 86.4895 12.3236 87.1221 12.3236C87.6229 12.3236 88.0809 12.3961 88.496 12.541C88.9112 12.686 89.267 12.9166 89.5635 13.2329C89.8666 13.5492 90.0973 13.9677 90.2554 14.4882C90.4202 15.0088 90.5025 15.6447 90.5025 16.3959V23.2161H87.6361V16.386C87.6361 15.9116 87.5702 15.5426 87.4384 15.279C87.3066 15.0154 87.1122 14.8309 86.8552 14.7255C86.6048 14.6134 86.2951 14.5574 85.9261 14.5574C85.5439 14.5574 85.2111 14.6332 84.9278 14.7848C84.651 14.9363 84.4204 15.1472 84.2359 15.4174C84.058 15.6809 83.9229 15.9907 83.8306 16.3465C83.7384 16.7023 83.6923 17.0845 83.6923 17.4931ZM99.4379 12.5213H102.018V22.8602C102.018 23.8355 101.8 24.6625 101.365 25.3412C100.937 26.0265 100.337 26.5438 99.5664 26.893C98.7955 27.2489 97.8993 27.4268 96.8779 27.4268C96.4298 27.4268 95.9554 27.3675 95.4546 27.2489C94.9603 27.1302 94.4859 26.9457 94.0312 26.6953C93.5831 26.4449 93.2075 26.1286 92.9044 25.7464L94.1597 24.0661C94.4892 24.4483 94.8714 24.7448 95.3063 24.9557C95.7412 25.1732 96.2222 25.2819 96.7494 25.2819C97.2634 25.2819 97.6983 25.1863 98.0541 24.9952C98.41 24.8107 98.6834 24.5373 98.8745 24.1748C99.0656 23.819 99.1612 23.3874 99.1612 22.88V14.9923L99.4379 12.5213ZM92.2422 17.9972V17.7896C92.2422 16.9725 92.341 16.2312 92.5387 15.5656C92.743 14.8935 93.0296 14.3169 93.3986 13.8359C93.7742 13.3548 94.2289 12.9825 94.7627 12.719C95.2964 12.4554 95.8994 12.3236 96.5715 12.3236C97.2832 12.3236 97.8795 12.4554 98.3605 12.719C98.8416 12.9825 99.2369 13.3581 99.5467 13.8458C99.8564 14.3268 100.097 14.8968 100.268 15.5557C100.446 16.2081 100.585 16.9231 100.683 17.7006V18.1553C100.585 18.8999 100.436 19.5918 100.239 20.231C100.041 20.8702 99.7806 21.4303 99.4577 21.9113C99.1348 22.3858 98.7329 22.7548 98.2518 23.0184C97.7774 23.282 97.2107 23.4138 96.5517 23.4138C95.8928 23.4138 95.2964 23.2787 94.7627 23.0085C94.2355 22.7383 93.7841 22.3594 93.4085 21.8718C93.0329 21.3842 92.743 20.8109 92.5387 20.1519C92.341 19.493 92.2422 18.7747 92.2422 17.9972ZM95.0888 17.7896V17.9972C95.0888 18.4387 95.1317 18.8505 95.2173 19.2327C95.303 19.6149 95.4348 19.9542 95.6127 20.2508C95.7972 20.5407 96.0246 20.7681 96.2947 20.9328C96.5715 21.0909 96.8977 21.17 97.2733 21.17C97.7938 21.17 98.2189 21.0613 98.5483 20.8438C98.8778 20.6198 99.1249 20.3134 99.2897 19.9246C99.4544 19.5358 99.55 19.0877 99.5763 18.5803V17.2855C99.5631 16.8704 99.5071 16.498 99.4083 16.1686C99.3094 15.8325 99.1711 15.5459 98.9931 15.3086C98.8152 15.0714 98.5846 14.8869 98.3012 14.7551C98.0179 14.6233 97.6818 14.5574 97.293 14.5574C96.9174 14.5574 96.5913 14.6431 96.3145 14.8144C96.0443 14.9792 95.817 15.2065 95.6325 15.4964C95.4546 15.7864 95.3195 16.129 95.2272 16.5244C95.135 16.9132 95.0888 17.3349 95.0888 17.7896ZM108.65 21.1898C108.999 21.1898 109.309 21.1239 109.579 20.9921C109.849 20.8537 110.06 20.6626 110.212 20.4188C110.37 20.1684 110.452 19.8752 110.459 19.5391H113.138C113.131 20.2903 112.93 20.9592 112.535 21.5456C112.139 22.1255 111.609 22.5835 110.943 22.9195C110.278 23.249 109.533 23.4138 108.709 23.4138C107.879 23.4138 107.154 23.2754 106.535 22.9986C105.922 22.7219 105.411 22.3397 105.003 21.852C104.594 21.3578 104.288 20.7845 104.084 20.1322C103.879 19.4732 103.777 18.7681 103.777 18.0169V17.7303C103.777 16.9725 103.879 16.2674 104.084 15.615C104.288 14.9561 104.594 14.3828 105.003 13.8952C105.411 13.401 105.922 13.0155 106.535 12.7387C107.148 12.462 107.866 12.3236 108.69 12.3236C109.566 12.3236 110.334 12.4916 110.993 12.8277C111.658 13.1637 112.179 13.6448 112.554 14.2708C112.937 14.8902 113.131 15.6249 113.138 16.475H110.459C110.452 16.1191 110.377 15.7963 110.232 15.5063C110.093 15.2164 109.889 14.9857 109.619 14.8144C109.355 14.6365 109.029 14.5475 108.64 14.5475C108.225 14.5475 107.886 14.6365 107.622 14.8144C107.359 14.9857 107.154 15.223 107.009 15.5261C106.864 15.8226 106.762 16.162 106.703 16.5442C106.65 16.9198 106.624 17.3151 106.624 17.7303V18.0169C106.624 18.4321 106.65 18.8307 106.703 19.2129C106.756 19.5951 106.854 19.9345 106.999 20.231C107.151 20.5275 107.359 20.7615 107.622 20.9328C107.886 21.1041 108.228 21.1898 108.65 21.1898ZM114.334 17.9774V17.7698C114.334 16.9857 114.446 16.2641 114.67 15.6052C114.894 14.9396 115.22 14.363 115.648 13.8754C116.076 13.3878 116.604 13.0089 117.23 12.7387C117.856 12.462 118.574 12.3236 119.384 12.3236C120.195 12.3236 120.916 12.462 121.549 12.7387C122.182 13.0089 122.712 13.3878 123.14 13.8754C123.575 14.363 123.905 14.9396 124.129 15.6052C124.353 16.2641 124.465 16.9857 124.465 17.7698V17.9774C124.465 18.755 124.353 19.4765 124.129 20.1421C123.905 20.801 123.575 21.3776 123.14 21.8718C122.712 22.3594 122.185 22.7383 121.559 23.0085C120.933 23.2787 120.215 23.4138 119.404 23.4138C118.594 23.4138 117.872 23.2787 117.24 23.0085C116.614 22.7383 116.083 22.3594 115.648 21.8718C115.22 21.3776 114.894 20.801 114.67 20.1421C114.446 19.4765 114.334 18.755 114.334 17.9774ZM117.18 17.7698V17.9774C117.18 18.4255 117.22 18.8439 117.299 19.2327C117.378 19.6215 117.503 19.9641 117.674 20.2607C117.852 20.5506 118.083 20.7779 118.366 20.9427C118.65 21.1074 118.996 21.1898 119.404 21.1898C119.8 21.1898 120.139 21.1074 120.422 20.9427C120.706 20.7779 120.933 20.5506 121.104 20.2607C121.276 19.9641 121.401 19.6215 121.48 19.2327C121.566 18.8439 121.608 18.4255 121.608 17.9774V17.7698C121.608 17.3349 121.566 16.9264 121.48 16.5442C121.401 16.1554 121.272 15.8127 121.094 15.5162C120.923 15.2131 120.696 14.9759 120.412 14.8045C120.129 14.6332 119.786 14.5475 119.384 14.5475C118.982 14.5475 118.64 14.6332 118.356 14.8045C118.08 14.9759 117.852 15.2131 117.674 15.5162C117.503 15.8127 117.378 16.1554 117.299 16.5442C117.22 16.9264 117.18 17.3349 117.18 17.7698ZM132.531 20.8834V8.0338H135.397V23.2161H132.817L132.531 20.8834ZM125.77 17.9972V17.7896C125.77 16.9725 125.862 16.2312 126.046 15.5656C126.231 14.8935 126.501 14.3169 126.857 13.8359C127.213 13.3548 127.651 12.9825 128.172 12.719C128.692 12.4554 129.285 12.3236 129.951 12.3236C130.577 12.3236 131.124 12.4554 131.592 12.719C132.066 12.9825 132.468 13.3581 132.797 13.8458C133.133 14.3268 133.404 14.8968 133.608 15.5557C133.812 16.2081 133.96 16.9231 134.053 17.7006V18.1553C133.96 18.8999 133.812 19.5918 133.608 20.231C133.404 20.8702 133.133 21.4303 132.797 21.9113C132.468 22.3858 132.066 22.7548 131.592 23.0184C131.117 23.282 130.564 23.4138 129.931 23.4138C129.265 23.4138 128.672 23.2787 128.152 23.0085C127.638 22.7383 127.203 22.3594 126.847 21.8718C126.498 21.3842 126.231 20.8109 126.046 20.1519C125.862 19.493 125.77 18.7747 125.77 17.9972ZM128.616 17.7896V17.9972C128.616 18.4387 128.649 18.8505 128.715 19.2327C128.788 19.6149 128.903 19.9542 129.061 20.2508C129.226 20.5407 129.437 20.7681 129.694 20.9328C129.957 21.0909 130.277 21.17 130.653 21.17C131.14 21.17 131.542 21.0613 131.858 20.8438C132.175 20.6198 132.415 20.3134 132.58 19.9246C132.751 19.5358 132.85 19.0877 132.876 18.5803V17.2855C132.857 16.8704 132.797 16.498 132.699 16.1686C132.606 15.8325 132.468 15.5459 132.283 15.3086C132.105 15.0714 131.881 14.8869 131.611 14.7551C131.348 14.6233 131.035 14.5574 130.672 14.5574C130.303 14.5574 129.987 14.6431 129.723 14.8144C129.46 14.9792 129.246 15.2065 129.081 15.4964C128.923 15.7864 128.804 16.129 128.725 16.5244C128.653 16.9132 128.616 17.3349 128.616 17.7896ZM140.626 12.5213V23.2161H137.769V12.5213H140.626ZM137.591 9.7339C137.591 9.31876 137.736 8.9761 138.026 8.70593C138.316 8.43576 138.705 8.30068 139.193 8.30068C139.674 8.30068 140.059 8.43576 140.349 8.70593C140.646 8.9761 140.794 9.31876 140.794 9.7339C140.794 10.149 140.646 10.4917 140.349 10.7619C140.059 11.032 139.674 11.1671 139.193 11.1671C138.705 11.1671 138.316 11.032 138.026 10.7619C137.736 10.4917 137.591 10.149 137.591 9.7339ZM145.766 14.8045V23.2161H142.919V12.5213H145.588L145.766 14.8045ZM145.35 17.4931H144.579C144.579 16.7023 144.682 15.9907 144.886 15.3581C145.09 14.7189 145.377 14.1752 145.746 13.7271C146.115 13.2725 146.553 12.9265 147.06 12.6893C147.574 12.4455 148.148 12.3236 148.78 12.3236C149.281 12.3236 149.739 12.3961 150.154 12.541C150.569 12.686 150.925 12.9166 151.222 13.2329C151.525 13.5492 151.755 13.9677 151.914 14.4882C152.078 15.0088 152.161 15.6447 152.161 16.3959V23.2161H149.294V16.386C149.294 15.9116 149.228 15.5426 149.097 15.279C148.965 15.0154 148.77 14.8309 148.513 14.7255C148.263 14.6134 147.953 14.5574 147.584 14.5574C147.202 14.5574 146.869 14.6332 146.586 14.7848C146.309 14.9363 146.079 15.1472 145.894 15.4174C145.716 15.6809 145.581 15.9907 145.489 16.3465C145.397 16.7023 145.35 17.0845 145.35 17.4931ZM161.096 12.5213H163.676V22.8602C163.676 23.8355 163.458 24.6625 163.024 25.3412C162.595 26.0265 161.996 26.5438 161.225 26.893C160.454 27.2489 159.557 27.4268 158.536 27.4268C158.088 27.4268 157.614 27.3675 157.113 27.2489C156.619 27.1302 156.144 26.9457 155.689 26.6953C155.241 26.4449 154.866 26.1286 154.563 25.7464L155.818 24.0661C156.147 24.4483 156.53 24.7448 156.964 24.9557C157.399 25.1732 157.88 25.2819 158.408 25.2819C158.922 25.2819 159.356 25.1863 159.712 24.9952C160.068 24.8107 160.342 24.5373 160.533 24.1748C160.724 23.819 160.819 23.3874 160.819 22.88V14.9923L161.096 12.5213ZM153.9 17.9972V17.7896C153.9 16.9725 153.999 16.2312 154.197 15.5656C154.401 14.8935 154.688 14.3169 155.057 13.8359C155.432 13.3548 155.887 12.9825 156.421 12.719C156.955 12.4554 157.558 12.3236 158.23 12.3236C158.941 12.3236 159.538 12.4554 160.019 12.719C160.5 12.9825 160.895 13.3581 161.205 13.8458C161.515 14.3268 161.755 14.8968 161.926 15.5557C162.104 16.2081 162.243 16.9231 162.342 17.7006V18.1553C162.243 18.8999 162.094 19.5918 161.897 20.231C161.699 20.8702 161.439 21.4303 161.116 21.9113C160.793 22.3858 160.391 22.7548 159.91 23.0184C159.436 23.282 158.869 23.4138 158.21 23.4138C157.551 23.4138 156.955 23.2787 156.421 23.0085C155.894 22.7383 155.442 22.3594 155.067 21.8718C154.691 21.3842 154.401 20.8109 154.197 20.1519C153.999 19.493 153.9 18.7747 153.9 17.9972ZM156.747 17.7896V17.9972C156.747 18.4387 156.79 18.8505 156.876 19.2327C156.961 19.6149 157.093 19.9542 157.271 20.2508C157.455 20.5407 157.683 20.7681 157.953 20.9328C158.23 21.0909 158.556 21.17 158.931 21.17C159.452 21.17 159.877 21.0613 160.207 20.8438C160.536 20.6198 160.783 20.3134 160.948 19.9246C161.113 19.5358 161.208 19.0877 161.234 18.5803V17.2855C161.221 16.8704 161.165 16.498 161.066 16.1686C160.968 15.8325 160.829 15.5459 160.651 15.3086C160.473 15.0714 160.243 14.8869 159.959 14.7551C159.676 14.6233 159.34 14.5574 158.951 14.5574C158.576 14.5574 158.249 14.6431 157.973 14.8144C157.703 14.9792 157.475 15.2065 157.291 15.4964C157.113 15.7864 156.978 16.129 156.885 16.5244C156.793 16.9132 156.747 17.3349 156.747 17.7896Z" fill="#0E0F1D"/>
<path d="M38.5509 0H0.235742C0.105638 0 0 0.105169 0 0.234909V36.7651C0 36.8948 0.105638 37 0.235742 37H38.5509C38.681 37 38.786 36.8948 38.786 36.7651V0.234909C38.786 0.105169 38.681 0 38.5509 0Z" fill="#0EC5D7"/>
<path d="M10.251 8.14258V28.8573" stroke="white" stroke-width="3.46892"/>
<path d="M16.5132 8.14258V18.4608" stroke="white" stroke-width="3.46234"/>
<path d="M21.2837 8.14331V11.648H27.2593L31.5941 20.5265H35.4972L29.2983 8.14331H21.2837Z" fill="white"/>
<path d="M23.0676 15.0349V28.8573" stroke="white" stroke-width="4.00739"/>
</svg>
