<svg width="13" height="12" viewBox="0 0 13 12" fill="none" xmlns="http://www.w3.org/2000/svg">
<path d="M7.23168 0.790411C7.14037 0.557048 6.98293 0.357042 6.77964 0.216165C6.57635 0.0752893 6.33653 0 6.09109 0C5.84565 0 5.60583 0.0752893 5.40254 0.216165C5.19925 0.357042 5.04181 0.557048 4.9505 0.790411L3.91574 3.37994L3.86871 3.41607L1.14659 3.62082C0.985863 3.63186 0.828852 3.67532 0.684571 3.7487C0.540291 3.82207 0.411585 3.92392 0.305846 4.0484C0.110126 4.27901 0.00165024 4.57389 0.000122157 4.87946C5.47101e-05 5.06337 0.0395273 5.24505 0.115736 5.41158C0.191945 5.5781 0.30302 5.7254 0.441071 5.843L2.52823 7.64965V7.6918L1.89326 10.4319C1.87025 10.5346 1.85842 10.6396 1.85798 10.745C1.85531 10.9128 1.88688 11.0792 1.95066 11.2338C2.01444 11.3883 2.10904 11.5274 2.22838 11.6423C2.42544 11.84 2.68194 11.9636 2.95623 11.9931C3.23053 12.0227 3.50651 11.9563 3.73936 11.8049L6.09109 10.3295H6.14988L8.44281 11.8049C8.6763 11.9556 8.95267 12.0209 9.22699 11.9903C9.5013 11.9597 9.75745 11.8349 9.9538 11.6363C10.0731 11.5214 10.1677 11.3823 10.2315 11.2277C10.2953 11.0732 10.3269 10.9068 10.3242 10.739C10.3241 10.6356 10.3122 10.5325 10.2889 10.4319L9.61868 7.69783V7.65567L11.7058 5.84902C11.8324 5.74078 11.9365 5.60767 12.012 5.45754C12.0876 5.30742 12.133 5.14332 12.1456 4.97492C12.1582 4.80653 12.1377 4.63726 12.0854 4.47709C12.0331 4.31693 11.95 4.16911 11.8411 4.04238C11.7353 3.9179 11.6066 3.81605 11.4623 3.74267C11.3181 3.6693 11.161 3.62584 11.0003 3.6148L8.27819 3.41005L8.23116 3.37392L7.1964 0.784388L7.23168 0.790411ZM8.86024 6.72826C8.72419 6.84723 8.61486 6.99495 8.53976 7.16126C8.46467 7.32758 8.42558 7.50856 8.42518 7.6918C8.42493 7.79327 8.43677 7.89439 8.46045 7.99291L9.10718 10.6908V10.7209H9.06014H9.03074L6.7143 9.24552C6.51754 9.12325 6.29182 9.0586 6.06169 9.0586C5.83156 9.0586 5.60584 9.12325 5.40909 9.24552L3.15143 10.7812H3.1044V10.7511L3.757 8.02904C3.78068 7.93052 3.79253 7.8294 3.79228 7.72794C3.79188 7.54469 3.75279 7.36371 3.67769 7.19739C3.60259 7.03108 3.49327 6.88337 3.35721 6.76439L1.27005 4.95774V4.91559V4.87343H1.30533L4.03333 4.66868C4.26166 4.65102 4.48062 4.56837 4.66554 4.43004C4.85045 4.29171 4.99395 4.10321 5.07985 3.8858L6.03818 1.26616V1.23605H6.10873V1.26616L7.14349 3.85569C7.22939 4.0731 7.37289 4.2616 7.5578 4.39993C7.74271 4.53826 7.96168 4.62091 8.19 4.63857L10.918 4.84332H10.9533V4.88548V4.92763L8.86024 6.72826Z" fill="#FFCD1A"/>
</svg>
